<svg width="16" height="16" viewBox="0 0 16 16" fill="none" xmlns="http://www.w3.org/2000/svg">
<path d="M7.64772 1.31152H4.92475C2.68534 1.31152 1.28125 2.89695 1.28125 5.14145V11.1962C1.28125 13.4407 2.67879 15.0262 4.92475 15.0262H11.3509C13.5976 15.0262 14.9952 13.4407 14.9952 11.1962V8.26278" stroke="#667085" stroke-width="1.25" stroke-linecap="round" stroke-linejoin="round"/>
<path fill-rule="evenodd" clip-rule="evenodd" d="M5.70668 7.23347L11.149 1.79117C11.827 1.11388 12.9259 1.11388 13.604 1.79117L14.4903 2.67746C15.1683 3.35547 15.1683 4.45515 14.4903 5.13243L9.02173 10.601C8.72533 10.8974 8.32333 11.0641 7.90385 11.0641H5.17578L5.24424 8.3113C5.25443 7.90638 5.41975 7.5204 5.70668 7.23347Z" stroke="#667085" stroke-width="1.25" stroke-linecap="round" stroke-linejoin="round"/>
<path d="M10.3223 2.63184L13.6475 5.95708" stroke="#667085" stroke-width="1.25" stroke-linecap="round" stroke-linejoin="round"/>
</svg>
