<svg width="16" height="14" viewBox="0 0 16 14" fill="none" xmlns="http://www.w3.org/2000/svg">
<path d="M6.60997 10.8271H1.35938" stroke="#667085" stroke-width="1.25" stroke-linecap="round" stroke-linejoin="round"/>
<path d="M8.95312 2.75049H14.2037" stroke="#667085" stroke-width="1.25" stroke-linecap="round" stroke-linejoin="round"/>
<path fill-rule="evenodd" clip-rule="evenodd" d="M5.27451 2.70521C5.27451 1.6255 4.39271 0.75 3.30522 0.75C2.21774 0.75 1.33594 1.6255 1.33594 2.70521C1.33594 3.78492 2.21774 4.66042 3.30522 4.66042C4.39271 4.66042 5.27451 3.78492 5.27451 2.70521Z" stroke="#667085" stroke-width="1.25" stroke-linecap="round" stroke-linejoin="round"/>
<path fill-rule="evenodd" clip-rule="evenodd" d="M14.669 10.7951C14.669 9.71534 13.7879 8.83984 12.7004 8.83984C11.6123 8.83984 10.7305 9.71534 10.7305 10.7951C10.7305 11.8748 11.6123 12.7503 12.7004 12.7503C13.7879 12.7503 14.669 11.8748 14.669 10.7951Z" stroke="#667085" stroke-width="1.25" stroke-linecap="round" stroke-linejoin="round"/>
</svg>
