<svg width="24" height="24" viewBox="0 0 24 24" fill="none" xmlns="http://www.w3.org/2000/svg">
<path d="M8.25356 3.35986H15.33C18.0154 3.35986 19.6854 5.25506 19.6854 7.93766V16.0621C19.6854 18.7446 18.0154 20.6399 15.329 20.6399H8.25356C5.56909 20.6399 3.89807 18.7446 3.89807 16.0621V7.93766C3.89807 5.25506 5.57656 3.35986 8.25356 3.35986Z" stroke="#667085" stroke-width="1.44" stroke-linecap="round" stroke-linejoin="round"/>
<path d="M7.60911 13.4701V13.4797M7.60911 17.0701V17.0797M11.6891 13.4701V13.4797M11.6891 17.0701V17.0797M15.7691 13.4701V13.4797M15.7691 17.0701V17.0797M7.63352 13.3726C7.65725 13.3727 7.6804 13.3798 7.70007 13.393C7.71974 13.4063 7.73505 13.425 7.74407 13.447C7.75307 13.4689 7.75539 13.493 7.7507 13.5163C7.74603 13.5395 7.73455 13.5608 7.71775 13.5775C7.70095 13.5943 7.67957 13.6057 7.6563 13.6103C7.63304 13.6149 7.60894 13.6125 7.58704 13.6034C7.56514 13.5943 7.54642 13.5789 7.53326 13.5592C7.52009 13.5394 7.51306 13.5163 7.51306 13.4926C7.51299 13.4767 7.51605 13.4611 7.52208 13.4464C7.52811 13.4318 7.53698 13.4186 7.54819 13.4073C7.5594 13.3962 7.57272 13.3874 7.58737 13.3814C7.60202 13.3754 7.6177 13.3724 7.63352 13.3726ZM7.63352 16.9726C7.65725 16.9727 7.6804 16.9798 7.70007 16.993C7.71974 17.0063 7.73505 17.025 7.74407 17.047C7.75307 17.0689 7.75539 17.093 7.7507 17.1163C7.74603 17.1395 7.73455 17.1608 7.71775 17.1775C7.70095 17.1943 7.67957 17.2057 7.6563 17.2103C7.63304 17.2149 7.60894 17.2125 7.58704 17.2034C7.56514 17.1943 7.54642 17.1789 7.53326 17.1592C7.52009 17.1394 7.51306 17.1163 7.51306 17.0926C7.51299 17.0767 7.51605 17.0611 7.52208 17.0464C7.52811 17.0318 7.53698 17.0186 7.54819 17.0073C7.5594 16.9962 7.57272 16.9874 7.58737 16.9814C7.60202 16.9754 7.6177 16.9724 7.63352 16.9726ZM11.7136 13.3726C11.7373 13.3727 11.7604 13.3798 11.7801 13.393C11.7998 13.4063 11.815 13.425 11.8241 13.447C11.8331 13.4689 11.8354 13.493 11.8307 13.5163C11.826 13.5395 11.8146 13.5608 11.7978 13.5775C11.781 13.5943 11.7596 13.6057 11.7363 13.6103C11.7131 13.6149 11.6889 13.6125 11.667 13.6034C11.6451 13.5943 11.6264 13.5789 11.6133 13.5592C11.6001 13.5394 11.5931 13.5163 11.5931 13.4926C11.593 13.4767 11.5961 13.4611 11.6021 13.4464C11.6081 13.4318 11.617 13.4186 11.6282 13.4073C11.6394 13.3962 11.6527 13.3874 11.6674 13.3814C11.682 13.3754 11.6977 13.3724 11.7136 13.3726ZM11.7136 16.9726C11.7373 16.9727 11.7604 16.9798 11.7801 16.993C11.7998 17.0063 11.815 17.025 11.8241 17.047C11.8331 17.0689 11.8354 17.093 11.8307 17.1163C11.826 17.1395 11.8146 17.1608 11.7978 17.1775C11.781 17.1943 11.7596 17.2057 11.7363 17.2103C11.7131 17.2149 11.6889 17.2125 11.667 17.2034C11.6451 17.1943 11.6264 17.1789 11.6133 17.1592C11.6001 17.1394 11.5931 17.1163 11.5931 17.0926C11.593 17.0767 11.5961 17.0611 11.6021 17.0464C11.6081 17.0318 11.617 17.0186 11.6282 17.0073C11.6394 16.9962 11.6527 16.9874 11.6674 16.9814C11.682 16.9754 11.6977 16.9724 11.7136 16.9726ZM15.7936 13.3726C15.8173 13.3727 15.8404 13.3798 15.8601 13.393C15.8798 13.4063 15.895 13.425 15.9041 13.447C15.9131 13.4689 15.9154 13.493 15.9107 13.5163C15.906 13.5395 15.8946 13.5608 15.8778 13.5775C15.861 13.5943 15.8396 13.6057 15.8163 13.6103C15.7931 13.6149 15.7689 13.6125 15.747 13.6034C15.7251 13.5943 15.7064 13.5789 15.6933 13.5592C15.6801 13.5394 15.6731 13.5163 15.6731 13.4926C15.673 13.4767 15.6761 13.4611 15.6821 13.4464C15.6881 13.4318 15.697 13.4186 15.7082 13.4073C15.7194 13.3962 15.7327 13.3874 15.7474 13.3814C15.762 13.3754 15.7777 13.3724 15.7936 13.3726ZM15.7936 16.9726C15.8173 16.9727 15.8404 16.9798 15.8601 16.993C15.8798 17.0063 15.895 17.025 15.9041 17.047C15.9131 17.0689 15.9154 17.093 15.9107 17.1163C15.906 17.1395 15.8946 17.1608 15.8778 17.1775C15.861 17.1943 15.8396 17.2057 15.8163 17.2103C15.7931 17.2149 15.7689 17.2125 15.747 17.2034C15.7251 17.1943 15.7064 17.1789 15.6933 17.1592C15.6801 17.1394 15.6731 17.1163 15.6731 17.0926C15.673 17.0767 15.6761 17.0611 15.6821 17.0464C15.6881 17.0318 15.697 17.0186 15.7082 17.0073C15.7194 16.9962 15.7327 16.9874 15.7474 16.9814C15.762 16.9754 15.7777 16.9724 15.7936 16.9726Z" stroke="#667085" stroke-width="1.44" stroke-linecap="round" stroke-linejoin="round"/>
<path fill-rule="evenodd" clip-rule="evenodd" d="M14.8815 6.62256H8.70459C7.73971 6.62256 7.13818 7.16244 7.13818 8.15347V8.43182C7.13818 9.43873 7.73971 9.99076 8.70459 9.99076H14.8787C15.8464 9.99076 16.4451 9.449 16.4451 8.45704V8.15347C16.4479 7.16244 15.8492 6.62256 14.8815 6.62256Z" stroke="#667085" stroke-width="1.44" stroke-linecap="round" stroke-linejoin="round"/>
</svg>
